<svg xmlns="http://www.w3.org/2000/svg" width="145.347" height="145.348" viewBox="0 0 145.347 145.348"><defs></defs><g transform="translate(0)"><path class="a" d="M888.113,392.24c.778.063,1.556.134,2.335.189A70.534,70.534,0,0,1,908.134,396a72.976,72.976,0,0,1,42.045,36.857,71.254,71.254,0,0,1,6.558,20.827,74.928,74.928,0,0,1,.832,9.764A72.738,72.738,0,0,1,906.946,534.2a69.464,69.464,0,0,1-13.477,2.894c-2.376.269-4.755.417-7.147.471a72.68,72.68,0,0,1-72.483-57.305,66.877,66.877,0,0,1-1.527-11.749,2.83,2.83,0,0,0-.073-.4v-6.47a4.917,4.917,0,0,0,.076-.518,67.134,67.134,0,0,1,1.121-9.614,71.708,71.708,0,0,1,7.475-21.13,72.894,72.894,0,0,1,43.35-35.2,69.628,69.628,0,0,1,15.048-2.746c.778-.053,1.556-.128,2.333-.192Zm-72.321,72.681a69.118,69.118,0,1,0,69.484-69.138A69.029,69.029,0,0,0,815.792,464.921Z" transform="translate(-812.24 -392.24)"></path><path class="a" d="M836.286,481.73c-.141-.14-.071-.3-.044-.444.454-2.385.921-4.769,1.359-7.158.088-.48.355-.529.752-.5,2.582.164,5.166.292,7.752.211a18.793,18.793,0,0,0,12.789-5.429,24.72,24.72,0,0,0,4.635-6.187,1.076,1.076,0,0,1,1.111-.633c4.9.016,9.8.01,14.7.009.844,0,.845,0,.845-.831,0-1.118-.016-2.235.007-3.352.01-.463-.161-.633-.617-.615-.587.024-1.176,0-1.764.006-.384.006-.571-.134-.57-.549q.013-5.675,0-11.351c0-.449.2-.582.607-.574.608.012,1.216-.008,1.823,0,.377.007.521-.154.518-.528-.011-1.372-.019-2.745,0-4.117.009-.556-.341-.514-.7-.514H865.316c-.059,0-.118,0-.177,0-.363-.028-.536.108-.531.5q.022,2.058,0,4.117c-.005.422.176.55.564.54.588-.015,1.176.007,1.765,0,.4-.008.611.12.609.571q-.016,5.676,0,11.351c0,.414-.182.554-.568.552-1.059-.007-2.118.013-3.176-.006-.452-.008-.629.147-.619.613.023,1.156-.014,2.314.017,3.47a1.092,1.092,0,0,1-.58,1.055,15.325,15.325,0,0,1-5.7,1.937,30.933,30.933,0,0,1-14.41-.925,9.382,9.382,0,0,1-2.576-1.124c-.548-.369-.862-.222-.984.421q-2.1,11.115-4.2,22.23c-.067.357-.068.639.366.791.472.165.527-.194.669-.451a10.78,10.78,0,0,1,5.729-5.24,6.115,6.115,0,0,1,5.446.283,5.971,5.971,0,0,1,2.354,2.784,14.039,14.039,0,0,1,1.139,4.72,33.522,33.522,0,0,1-.569,9.762,13.331,13.331,0,0,1-2.218,5.395,4.82,4.82,0,0,1-5.767,1.823,3.425,3.425,0,0,1-1.352-.81c-.764-.812-1.206-1.55-.635-2.723a16.886,16.886,0,0,0,1.76-5.761c.164-1.687-.007-3.283-1.367-4.476a4.849,4.849,0,0,0-7.379,1.2c-.1.168-.126.491-.393.437-.188-.038-.18-.323-.231-.506a61,61,0,0,1-2.134-12.068c-1.231-17.294,3.606-32.687,14.749-45.96a62.127,62.127,0,0,1,37.3-21.568,59.9,59.9,0,0,1,7.874-.879,63.448,63.448,0,0,1,65.638,51.843,63.529,63.529,0,0,1-13.02,51.24,62.523,62.523,0,0,1-34.87,21.96,60.25,60.25,0,0,1-10.272,1.515,63.169,63.169,0,0,1-48.4-17.795,63.79,63.79,0,0,1-11.461-15.054c-.038-.069-.08-.135-.115-.2-.069-.138-.206-.3-.111-.432.111-.158.291-.024.432.016a24.525,24.525,0,0,0,14.308-.144c4.684-1.454,8.154-4.319,9.674-9.14a14.146,14.146,0,0,0,.208-8.343,11.352,11.352,0,0,0-7.208-7.548,19.386,19.386,0,0,0-14.838.148,12.477,12.477,0,0,0-3.295,2.132C836.616,481.54,836.512,481.731,836.286,481.73ZM951.975,483.8a18.809,18.809,0,0,0-2.473-9.911,12.66,12.66,0,0,0-13.005-6.134,13.314,13.314,0,0,0-9.552,6.582,20.177,20.177,0,0,0-2.738,10.561,19.424,19.424,0,0,0,2.124,9.707,12.614,12.614,0,0,0,12.982,6.835,13.145,13.145,0,0,0,9.821-6.461A20.318,20.318,0,0,0,951.975,483.8Zm-59.317.127c.022-.688-.053-1.37-.1-2.054a18.4,18.4,0,0,0-1.824-6.947,12.79,12.79,0,0,0-16.669-6.3,14.332,14.332,0,0,0-7.907,8.715,22.957,22.957,0,0,0-1.237,9.717,18.209,18.209,0,0,0,2.353,8.048,12.558,12.558,0,0,0,13.2,6.252,13.435,13.435,0,0,0,9.84-7.287A21.233,21.233,0,0,0,892.658,483.929Zm29.66.449a20.166,20.166,0,0,0-2.175-9.943,12.6,12.6,0,0,0-14.084-6.526c-4.871,1.041-8.03,4.215-9.934,8.7a22.249,22.249,0,0,0-1.557,10.012,18.637,18.637,0,0,0,2.132,8.054,12.543,12.543,0,0,0,13.017,6.752,13.167,13.167,0,0,0,9.97-6.815A20.157,20.157,0,0,0,922.318,484.378ZM887.173,461.6q2.734,0,5.47,0c.336,0,.633-.005.63-.473-.01-1.274-.007-2.548,0-3.822,0-.344-.15-.5-.5-.5-.392.006-.785-.016-1.176,0-.454.02-.619-.169-.61-.627.023-1.195.006-2.391.008-3.587a3.053,3.053,0,0,1,3.038-3.28c1.662-.08,2.765.824,2.7,2.434-.045,1.115-.008,2.234-.008,3.352,0,1.66,0,1.66-1.637,1.708-.02,0-.039,0-.059,0-.4-.033-.562.138-.557.548q.023,1.852,0,3.7c-.006.412.154.546.555.544q5.352-.014,10.7,0c.474,0,.612-.185.6-.628-.02-1,0-2-.006-3,0-1.29.087-1.167-1.175-1.174-.785,0-.821-.04-.824-.837-.007-2.156.052-4.315-.034-6.468a4.5,4.5,0,0,0-2.923-4.188,10.045,10.045,0,0,0-5.6-.529,7.264,7.264,0,0,0-4.547,2.589c-.108.128-.213.345-.407.274s-.132-.306-.133-.474c-.007-.705-.018-1.412,0-2.117.012-.428-.154-.59-.586-.588q-4.175.018-8.351,0c-.479,0-.607.2-.6.638.019.882.005,1.764.005,2.646,0,1.479,0,1.5,1.478,1.5.557,0,.7.213.689.732-.024,1.764-.009,3.528-.009,5.293,0,1.492,0,1.492-1.517,1.534-.02,0-.04,0-.059,0-.432-.038-.591.166-.586.59.014,1.176.023,2.353,0,3.528-.012.5.148.691.671.683C883.605,461.58,885.389,461.6,887.173,461.6Zm29.5-17.009a13.543,13.543,0,0,0-4.068.491c-3.684,1.054-6.309,3.155-6.767,7.207-.335,2.958.463,5.609,2.962,7.372,4.108,2.9,8.616,3.071,13.2,1.322a6.372,6.372,0,0,0,3.884-4.917c.1-.431.049-.679-.474-.675-1.8.013-3.605.007-5.408,0-.313,0-.539.094-.575.444a2.936,2.936,0,0,1-5.684-.046,11.215,11.215,0,0,1,.023-5.07,2.686,2.686,0,0,1,2.848-2.148,2.48,2.48,0,0,1,2.542,2.166,5.647,5.647,0,0,1,.139.809c.072.758.149.82.909.733,1.672-.192,3.343-.4,5.018-.554.536-.051.671-.273.577-.761a7.1,7.1,0,0,0-4.421-5.533A11,11,0,0,0,916.671,444.587Zm9.088,14.626a2.681,2.681,0,0,0,2.693,2.735,2.734,2.734,0,1,0,.012-5.467A2.7,2.7,0,0,0,925.759,459.213Z" transform="translate(-821.282 -401.867)"></path><path class="a" d="M1050.174,543.349a52.353,52.353,0,0,1-.844,11.149,13.063,13.063,0,0,1-1.272,3.711,5.259,5.259,0,0,1-.707,1.008,2.69,2.69,0,0,1-4.279-.136,9.369,9.369,0,0,1-1.659-4.225,48.126,48.126,0,0,1-.726-8.885,74.826,74.826,0,0,1,.364-9.915,23.328,23.328,0,0,1,1.29-5.714,7.13,7.13,0,0,1,1.033-1.838,2.648,2.648,0,0,1,4.229-.159,6.753,6.753,0,0,1,1.375,2.637,28.816,28.816,0,0,1,1.048,6.539C1050.178,539.491,1050.2,541.471,1050.174,543.349Z" transform="translate(-928.621 -461.082)"></path><path class="a" d="M929.189,543.58a54.384,54.384,0,0,1-.931,11.158,13.369,13.369,0,0,1-1.032,3.116,5.631,5.631,0,0,1-.748,1.192,2.732,2.732,0,0,1-4.642-.239,10.723,10.723,0,0,1-1.511-4.291,45.51,45.51,0,0,1-.6-6.19c-.1-2.213-.149-4.426-.073-6.638a44.6,44.6,0,0,1,1.034-9.321,10.52,10.52,0,0,1,1.394-3.472,2.992,2.992,0,0,1,2.032-1.473,2.69,2.69,0,0,1,2.591,1.067,9.242,9.242,0,0,1,1.657,4.04,40.293,40.293,0,0,1,.729,6.705C929.145,540.683,929.221,542.13,929.189,543.58Z" transform="translate(-866.943 -461.095)"></path><path class="a" d="M989.666,543.5a54.028,54.028,0,0,1-.814,10.76,16.228,16.228,0,0,1-1,3.314,6.376,6.376,0,0,1-.873,1.458,2.725,2.725,0,0,1-4.542-.084,9.64,9.64,0,0,1-1.527-3.973,49.053,49.053,0,0,1-.74-7.885c-.095-2.411-.071-4.818.048-7.223a31.465,31.465,0,0,1,1.508-9.3,6.967,6.967,0,0,1,1.117-2.057,2.685,2.685,0,0,1,4.455.093,9.348,9.348,0,0,1,1.526,3.786,40.587,40.587,0,0,1,.738,6.352C989.647,540.331,989.662,541.916,989.666,543.5Z" transform="translate(-897.766 -461.086)"></path></g></svg>